<svg id="Layer_1" enable-background="new 0 0 256 256" height="512" viewBox="0 0 256 256" width="512" xmlns="http://www.w3.org/2000/svg"><g><g><circle cx="128" cy="138" fill="#f1f2f2" r="100"/></g><g><path d="m36.394 161.135c-.91 0-1.733-.626-1.947-1.551-1.624-7.039-2.447-14.3-2.447-21.584 0-10.531 1.703-20.889 5.062-30.785.355-1.046 1.49-1.607 2.536-1.251 1.046.355 1.606 1.491 1.251 2.537-3.217 9.481-4.849 19.406-4.849 29.499 0 6.981.789 13.941 2.345 20.685.248 1.077-.424 2.15-1.5 2.398-.152.036-.302.052-.451.052zm5.454-58.733c-.267 0-.538-.054-.798-.167-1.013-.441-1.476-1.62-1.034-2.632l.293-.662c.455-1.006 1.638-1.454 2.646-1 1.007.455 1.454 1.639.999 2.646l-.271.613c-.329.753-1.064 1.202-1.835 1.202z" fill="#fff"/></g><g><path d="m193.534 62.466c15.24 17.551 24.466 40.465 24.466 65.534 0 55.229-44.771 100-100 100-25.069 0-47.983-9.226-65.534-24.466 18.335 21.114 45.375 34.466 75.534 34.466 55.229 0 100-44.771 100-100 0-30.159-13.352-57.199-34.466-75.534z" fill="#e6e7e8"/></g><g><path d="m196.161 64.838c16.648 17.861 26.839 41.819 26.839 68.162 0 55.229-44.771 100-100 100-26.342 0-50.301-10.191-68.162-26.838 18.256 19.585 44.276 31.838 73.162 31.838 55.229 0 100-44.771 100-100 0-28.886-12.253-54.907-31.839-73.162z" fill="#d1d3d4"/></g><g><g><circle cx="128" cy="138" fill="#ffc91d" r="57.5"/></g><g><path d="m144.597 82.943c14.227 10.467 23.464 27.321 23.464 46.338 0 31.756-25.744 57.5-57.5 57.5-5.772 0-11.341-.86-16.597-2.443 9.53 7.012 21.297 11.162 34.036 11.162 31.756 0 57.5-25.744 57.5-57.5 0-25.985-17.24-47.934-40.903-55.057z" fill="#ffa91a"/></g><path d="m128 77.5c-33.359 0-60.5 27.14-60.5 60.5s27.141 60.5 60.5 60.5 60.5-27.14 60.5-60.5-27.141-60.5-60.5-60.5zm54.414 57.5h-22.705c-.263-10.743-1.932-20.664-4.674-29.136 3.84-1.919 7.49-4.243 10.874-6.966 9.549 9.261 15.734 21.969 16.505 36.102zm-54.414 57.5c-7.654 0-14.651-7.515-19.416-19.165 6.147-2.347 12.717-3.585 19.416-3.585 6.698 0 13.269 1.238 19.416 3.585-4.765 11.65-11.762 19.165-19.416 19.165zm24.95-16.686c2.917 1.505 5.705 3.276 8.328 5.302-4.989 3.859-10.656 6.878-16.799 8.831 3.263-3.707 6.129-8.496 8.471-14.133zm-41.429 14.133c-6.142-1.953-11.81-4.972-16.799-8.831 2.623-2.026 5.411-3.797 8.328-5.302 2.342 5.637 5.208 10.426 8.471 14.133zm16.479-26.197c-7.397 0-14.657 1.352-21.451 3.928-2.453-7.806-3.992-16.946-4.256-26.678h51.413c-.264 9.732-1.802 18.872-4.256 26.678-6.793-2.576-14.053-3.928-21.45-3.928zm-25.707-28.75c.264-9.732 1.802-18.872 4.256-26.678 6.794 2.576 14.054 3.928 21.451 3.928s14.657-1.352 21.451-3.928c2.453 7.806 3.992 16.946 4.256 26.678zm25.707-51.5c7.654 0 14.651 7.515 19.416 19.165-6.147 2.347-12.717 3.585-19.416 3.585s-13.269-1.238-19.416-3.585c4.765-11.65 11.762-19.165 19.416-19.165zm-24.95 16.686c-2.917-1.505-5.705-3.276-8.328-5.302 4.989-3.859 10.656-6.878 16.799-8.831-3.263 3.707-6.129 8.496-8.471 14.133zm41.429-14.133c6.142 1.953 11.81 4.972 16.799 8.832-2.623 2.026-5.411 3.797-8.328 5.302-2.342-5.638-5.208-10.427-8.471-14.134zm-54.387 12.845c3.383 2.723 7.034 5.046 10.874 6.966-2.742 8.472-4.411 18.394-4.674 29.136h-22.706c.771-14.133 6.956-26.841 16.506-36.102zm-16.506 42.102h22.705c.263 10.743 1.932 20.664 4.674 29.136-3.84 1.919-7.49 4.243-10.874 6.966-9.549-9.261-15.734-21.969-16.505-36.102zm92.322 36.102c-3.383-2.723-7.034-5.046-10.874-6.966 2.742-8.472 4.411-18.394 4.674-29.136h22.705c-.77 14.133-6.955 26.841-16.505 36.102z" fill="#ef7816"/></g><g><g><g><g><path d="m240.424 245.893h-64.847c-2.761 0-5-2.239-5-5v-22.834c0-8.284 6.716-15 15-15h44.847c8.284 0 15 6.716 15 15v22.834c0 2.761-2.239 5-5 5z" fill="#648940"/></g><g><path d="m238.22 205.262c1.389 2.274 2.203 4.937 2.203 7.797v22.834c0 2.761-2.239 5-5 5h-64.847c0 2.761 2.239 5 5 5h64.847c2.761 0 5-2.239 5-5v-22.834c.001-5.425-2.889-10.163-7.203-12.797z" fill="#5a7a39"/></g><g><g><path d="m231.512 189.519c0 12.93-10.527 23.411-23.512 23.411-12.986 0-23.512-10.482-23.512-23.411 0-12.93 10.527-23.412 23.512-23.412s23.512 10.482 23.512 23.412z" fill="#ffd2c0"/></g></g><g><path d="m221.966 170.686c2.856 3.876 4.546 8.657 4.546 13.833 0 12.93-10.527 23.412-23.512 23.412-5.231 0-10.061-1.703-13.966-4.579 4.279 5.807 11.179 9.579 18.966 9.579 12.985 0 23.512-10.482 23.512-23.412 0-7.722-3.756-14.569-9.546-18.833z" fill="#fcc4ae"/></g></g><g><g><path d="m80.424 245.893h-64.848c-2.761 0-5-2.239-5-5v-22.834c0-8.284 6.716-15 15-15h44.847c8.284 0 15 6.716 15 15v22.834c.001 2.761-2.238 5-4.999 5z" fill="#e63950"/></g><g><path d="m78.22 205.262c1.389 2.274 2.203 4.937 2.203 7.797v22.834c0 2.761-2.239 5-5 5h-64.847c0 2.761 2.239 5 5 5h64.847c2.761 0 5-2.239 5-5v-22.834c.001-5.425-2.889-10.163-7.203-12.797z" fill="#d10028"/></g><g><g><path d="m71.512 189.519c0 12.93-10.527 23.411-23.512 23.411-12.986 0-23.512-10.482-23.512-23.411 0-12.93 10.527-23.412 23.512-23.412s23.512 10.482 23.512 23.412z" fill="#ffd2c0"/></g></g><g><path d="m61.966 170.686c2.856 3.876 4.546 8.657 4.546 13.833 0 12.93-10.527 23.412-23.512 23.412-5.231 0-10.061-1.703-13.966-4.579 4.279 5.807 11.179 9.579 18.966 9.579 12.985 0 23.512-10.482 23.512-23.412 0-7.722-3.756-14.569-9.546-18.833z" fill="#fcc4ae"/></g></g></g><g><g><g><path d="m240.424 89.893h-64.847c-2.761 0-5-2.239-5-5v-22.834c0-8.284 6.716-15 15-15h44.847c8.284 0 15 6.716 15 15v22.834c0 2.761-2.239 5-5 5z" fill="#893add"/></g><g><path d="m238.22 49.262c1.389 2.274 2.203 4.937 2.203 7.797v22.834c0 2.761-2.239 5-5 5h-64.847c0 2.761 2.239 5 5 5h64.847c2.761 0 5-2.239 5-5v-22.834c.001-5.425-2.889-10.163-7.203-12.797z" fill="#6c2bc1"/></g><g><g><path d="m231.512 33.519c0 12.93-10.527 23.411-23.512 23.411-12.986 0-23.512-10.482-23.512-23.411s10.527-23.412 23.512-23.412 23.512 10.482 23.512 23.412z" fill="#ffd2c0"/></g></g><g><path d="m221.966 14.686c2.856 3.876 4.546 8.657 4.546 13.833 0 12.93-10.527 23.412-23.512 23.412-5.231 0-10.061-1.703-13.966-4.579 4.279 5.807 11.179 9.579 18.966 9.579 12.985 0 23.512-10.482 23.512-23.412 0-7.722-3.756-14.569-9.546-18.833z" fill="#fcc4ae"/></g></g><g><g><path d="m80.424 89.893h-64.848c-2.761 0-5-2.239-5-5v-22.834c0-8.284 6.716-15 15-15h44.847c8.284 0 15 6.716 15 15v22.834c.001 2.761-2.238 5-4.999 5z" fill="#478cf7"/></g><g><path d="m78.22 49.262c1.389 2.274 2.203 4.937 2.203 7.797v22.834c0 2.761-2.239 5-5 5h-64.847c0 2.761 2.239 5 5 5h64.847c2.761 0 5-2.239 5-5v-22.834c.001-5.425-2.889-10.163-7.203-12.797z" fill="#377de2"/></g><g><g><path d="m71.512 33.519c0 12.93-10.527 23.411-23.512 23.411-12.986 0-23.512-10.482-23.512-23.411s10.527-23.412 23.512-23.412 23.512 10.482 23.512 23.412z" fill="#ffd2c0"/></g></g><g><path d="m61.966 14.686c2.856 3.876 4.546 8.657 4.546 13.833 0 12.93-10.527 23.412-23.512 23.412-5.231 0-10.061-1.703-13.966-4.579 4.279 5.806 11.179 9.578 18.966 9.578 12.985 0 23.512-10.482 23.512-23.412 0-7.721-3.756-14.568-9.546-18.832z" fill="#fcc4ae"/></g></g></g></g></g></svg>