<svg id="flat" height="512" viewBox="0 0 512 512" width="512" xmlns="http://www.w3.org/2000/svg"><path d="m47.2 256h416.8v232h-416.8z" fill="#5771e5"/><path d="m488 248h-464l48-72h368l1.6 2.4 23.2 34.8z" fill="#ed6445"/><path d="m72 56h368v120h-368z" fill="#5771e5"/><path d="m464 24-8 32h-400l-8-32z" fill="#89a8f5"/><path d="m384 144a16 16 0 0 1 16-16v-24a16 16 0 0 1 -16-16h-256a16 16 0 0 1 -16 16v24a16 16 0 0 1 16 16z" fill="#6e8beb"/><path d="m47.2 296a23.2 23.2 0 0 0 23.2-23.2v-24.8h-46.4v24.8a23.2 23.2 0 0 0 23.2 23.2z" fill="#de402f"/><path d="m93.6 296a23.2 23.2 0 0 0 23.2-23.2v-24.8h-46.4v24.8a23.2 23.2 0 0 0 23.2 23.2z" fill="#f5a431"/><g fill="#de402f"><path d="m140 296a23.2 23.2 0 0 0 23.2-23.2v-24.8h-46.4v24.8a23.2 23.2 0 0 0 23.2 23.2z"/><path d="m232.8 296a23.2 23.2 0 0 0 23.2-23.2v-24.8h-46.4v24.8a23.2 23.2 0 0 0 23.2 23.2z"/><path d="m325.6 296a23.2 23.2 0 0 0 23.2-23.2v-24.8h-46.4v24.8a23.2 23.2 0 0 0 23.2 23.2z"/><path d="m418.4 296a23.2 23.2 0 0 0 23.2-23.2v-24.8h-46.4v24.8a23.2 23.2 0 0 0 23.2 23.2z"/></g><path d="m24 248 48-72" fill="#ed6445"/><path d="m164.8 176-48 72h-46.4l48-72z" fill="#f7c04a"/><path d="m186.4 296a23.2 23.2 0 0 0 23.2-23.2v-24.8h-46.4v24.8a23.2 23.2 0 0 0 23.2 23.2z" fill="#f5a431"/><path d="m257.6 176-48 72h-46.4l48-72z" fill="#f7c04a"/><path d="m279.2 296a23.2 23.2 0 0 0 23.2-23.2v-24.8h-46.4v24.8a23.2 23.2 0 0 0 23.2 23.2z" fill="#f5a431"/><path d="m350.4 176-48 72h-46.4l48-72z" fill="#f7c04a"/><path d="m372 296a23.2 23.2 0 0 0 23.2-23.2v-24.8h-46.4v24.8a23.2 23.2 0 0 0 23.2 23.2z" fill="#f5a431"/><path d="m441.6 178.4-46.4 69.6h-46.4l48-72h43.2z" fill="#f7c04a"/><path d="m464.8 296a23.2 23.2 0 0 0 23.2-23.2v-24.8h-46.4v24.8a23.2 23.2 0 0 0 23.2 23.2z" fill="#f5a431"/><path d="m488 248h-46.4l23.2-34.8z" fill="#f7c04a"/><path d="m80 328h104v96h-104z" fill="#96cffa"/><path d="m216 328h80v160h-80z" fill="#89a8f5"/><circle cx="240" cy="408" fill="#6e8beb" r="8"/><path d="m184 328v19.31l-58.34 58.35-11.32-11.32 66.35-66.34z" fill="#7ab8f5"/><path d="m109.66 381.66-29.66 29.65v-22.63l18.34-18.34z" fill="#7ab8f5"/><path d="m108.686 352h22.627v16h-22.627z" fill="#7ab8f5" transform="matrix(.707 -.707 .707 .707 -219.419 190.309)"/><path d="m328 328h104v96h-104z" fill="#96cffa"/><path d="m432 328v19.31l-58.34 58.35-11.32-11.32 66.35-66.34z" fill="#7ab8f5"/><path d="m357.66 381.66-29.66 29.65v-22.63l18.34-18.34z" fill="#7ab8f5"/><path d="m356.686 352h22.627v16h-22.627z" fill="#7ab8f5" transform="matrix(.707 -.707 .707 .707 -146.773 365.679)"/></svg>