<?xml version="1.0" encoding="iso-8859-1"?>
<!-- Generator: Adobe Illustrator 19.0.0, SVG Export Plug-In . SVG Version: 6.00 Build 0)  -->
<svg version="1.1" id="Capa_1" xmlns="http://www.w3.org/2000/svg" xmlns:xlink="http://www.w3.org/1999/xlink" x="0px" y="0px"
	 viewBox="0 0 512 512" style="enable-background:new 0 0 512 512;" xml:space="preserve">
<path style="fill:#DFEAEF;" d="M20.757,53.941v403.6c0,29.791,105.322,53.941,235.243,53.941s235.243-24.15,235.243-53.941v-403.6
	C491.243,53.941,20.757,53.941,20.757,53.941z"/>
<path style="fill:#BFCFD6;" d="M437.492,53.941v134.533l0,0c0,27.706-91.105,50.53-208.368,53.588
	c8.822,0.23,17.786,0.352,26.875,0.352c73.063,0,138.345-7.638,181.492-19.621v100.213c0,27.706-91.105,50.53-208.368,53.588
	c8.822,0.23,17.786,0.353,26.875,0.353c73.063,0,138.345-7.638,181.492-19.621v100.731c0,27.706-91.105,50.53-208.368,53.588
	C237.946,511.878,246.91,512,256,512c129.921,0,235.243-24.15,235.243-53.941V323.526h-0.029c0.007-0.173,0.029-0.345,0.029-0.518
	V188.474l0,0V53.941H437.492z"/>
<g>
	<path style="fill:#86AEBC;" d="M256,226.711c-129.921,0-235.243-24.15-235.243-53.941v15.704
		c0,29.791,105.322,53.941,235.243,53.941s235.243-24.15,235.243-53.941V172.77C491.243,202.561,385.921,226.711,256,226.711z"/>
	<path style="fill:#86AEBC;" d="M256,361.241c-129.921,0-235.243-24.15-235.243-53.941v15.704
		c0,29.791,105.322,53.941,235.243,53.941s235.243-24.15,235.243-53.941V307.3C491.243,337.091,385.921,361.241,256,361.241z"/>
	<path style="fill:#86AEBC;" d="M256,495.801c-129.921,0-235.243-24.15-235.243-53.941v15.704
		c0,29.791,105.322,53.941,235.243,53.941s235.243-24.15,235.243-53.941V441.86C491.243,471.651,385.921,495.801,256,495.801z"/>
</g>
<ellipse style="fill:#9EBECC;" cx="256" cy="53.941" rx="235.24" ry="53.941"/>
<path style="fill:#86AEBC;" d="M256,0c-9.09,0-18.054,0.122-26.875,0.352C346.387,3.411,437.493,26.234,437.493,53.94
	s-91.105,50.53-208.368,53.588c8.821,0.23,17.785,0.352,26.875,0.352c129.921,0,235.243-24.15,235.243-53.941
	C491.243,24.15,385.921,0,256,0z"/>
<circle style="fill:#FC9F3D;" cx="398.87" cy="162.29" r="22.385"/>
<path style="fill:#9EBECC;" d="M256,183.327c-64.447,0-124.835-5.843-170.039-16.452c-4.152-0.974-6.729-5.131-5.754-9.284
	c0.975-4.153,5.139-6.725,9.284-5.754c44.081,10.346,103.216,16.043,166.51,16.043c26.512,0,52.515-1.011,77.288-3.004
	c4.253-0.342,7.975,2.828,8.317,7.078c0.342,4.252-2.827,7.975-7.078,8.317C309.344,182.299,282.923,183.327,256,183.327z"/>
<circle style="fill:#FC9F3D;" cx="398.87" cy="295.05" r="22.385"/>
<path style="fill:#9EBECC;" d="M256,316.09c-64.443,0-124.831-5.843-170.039-16.452c-4.152-0.974-6.729-5.131-5.754-9.284
	c0.975-4.154,5.132-6.725,9.284-5.754c44.085,10.346,103.22,16.043,166.51,16.043c26.512,0,52.515-1.011,77.288-3.004
	c4.274-0.356,7.975,2.828,8.317,7.078c0.342,4.252-2.827,7.975-7.078,8.317C309.344,315.063,282.923,316.09,256,316.09z"/>
<circle style="fill:#FC9F3D;" cx="398.87" cy="428.02" r="22.385"/>
<path style="fill:#9EBECC;" d="M256,449.055c-64.447,0-124.835-5.843-170.039-16.452c-4.152-0.974-6.729-5.131-5.754-9.284
	c0.975-4.153,5.139-6.723,9.284-5.754c44.081,10.346,103.216,16.043,166.51,16.043c26.512,0,52.515-1.011,77.288-3.004
	c4.253-0.35,7.975,2.827,8.317,7.078c0.342,4.252-2.827,7.975-7.078,8.317C309.344,448.027,282.923,449.055,256,449.055z"/>
<g>
</g>
<g>
</g>
<g>
</g>
<g>
</g>
<g>
</g>
<g>
</g>
<g>
</g>
<g>
</g>
<g>
</g>
<g>
</g>
<g>
</g>
<g>
</g>
<g>
</g>
<g>
</g>
<g>
</g>
</svg>
